<svg fill="none" height="24" viewBox="0 0 24 24" width="24" xmlns="http://www.w3.org/2000/svg"><g stroke="#292d32" stroke-linecap="round" stroke-linejoin="round" stroke-width="1.5"><path d="m12 17v2.38c0 1.87-.75 2.62-2.63 2.62h-4.75c-1.87 0-2.62-.75-2.62-2.62v-4.75c0-1.88.75-2.63 2.62-2.63h2.38v2.37c0 1.88.75 2.63 2.62 2.63z"/><path d="m17 12v2.37c0 1.88-.75 2.63-2.63 2.63h-4.75c-1.87 0-2.62-.75-2.62-2.63v-4.75c0-1.87.75-2.62 2.62-2.62h2.38v2.37c0 1.88.75 2.63 2.62 2.63z"/><path d="m22 4.62v4.75c0 1.88-.75 2.63-2.63 2.63h-4.75c-1.87 0-2.62-.75-2.62-2.63v-4.75c0-1.87.75-2.62 2.62-2.62h4.75c1.88 0 2.63.75 2.63 2.62z"/></g></svg>